<svg width="32" height="32" viewBox="0 0 32 32" fill="none" xmlns="http://www.w3.org/2000/svg">
<g clip-path="url(#clip0_1657_817)">
<path d="M16 31C24.2843 31 31 24.2843 31 16C31 7.71573 24.2843 1 16 1C7.71573 1 1 7.71573 1 16C1 24.2843 7.71573 31 16 31Z" fill="white" fill-opacity="0.08"/>
<g filter="url(#filter0_f_1657_817)">
<path d="M15.9993 25.3332C21.154 25.3332 25.3327 21.1545 25.3327 15.9998C25.3327 10.8452 21.154 6.6665 15.9993 6.6665C10.8447 6.6665 6.66602 10.8452 6.66602 15.9998C6.66602 21.1545 10.8447 25.3332 15.9993 25.3332Z" fill="#2997FF" fill-opacity="0.48"/>
</g>
<g clip-path="url(#clip1_1657_817)">
<path d="M16 6C10.473 6 6 10.4725 6 16C6 21.5269 10.4725 26 16 26C21.527 26 26 21.5275 26 16C26 10.4731 21.5275 6 16 6ZM17.0269 19.9696C17.0269 20.2855 16.5662 20.6014 16.0002 20.6014C15.4079 20.6014 14.9867 20.2855 14.9867 19.9696V14.9545C14.9867 14.5859 15.4079 14.3357 16.0002 14.3357C16.5662 14.3357 17.0269 14.5859 17.0269 14.9545V19.9696ZM16.0002 13.1248C15.3947 13.1248 14.9209 12.6773 14.9209 12.1771C14.9209 11.6769 15.3948 11.2425 16.0002 11.2425C16.5926 11.2425 17.0665 11.6769 17.0665 12.1771C17.0665 12.6773 16.5925 13.1248 16.0002 13.1248Z" fill="white"/>
</g>
</g>
<defs>
<filter id="filter0_f_1657_817" x="-1.33398" y="-1.3335" width="34.6667" height="34.6667" filterUnits="userSpaceOnUse" color-interpolation-filters="sRGB">
<feFlood flood-opacity="0" result="BackgroundImageFix"/>
<feBlend mode="normal" in="SourceGraphic" in2="BackgroundImageFix" result="shape"/>
<feGaussianBlur stdDeviation="4" result="effect1_foregroundBlur_1657_817"/>
</filter>
<clipPath id="clip0_1657_817">
<rect width="32" height="32" fill="white"/>
</clipPath>
<clipPath id="clip1_1657_817">
<rect width="20" height="20" fill="white" transform="translate(6 6)"/>
</clipPath>
</defs>
</svg>
