<svg width="24" height="24" viewBox="0 0 24 24" fill="none" xmlns="http://www.w3.org/2000/svg">
<g clip-path="url(#clip0_2246_715)">
<path d="M12 24C8.79469 24 5.78123 22.7518 3.51469 20.4853C1.24823 18.2188 0 15.2053 0 12C0 8.79469 1.24823 5.78123 3.51469 3.51469C5.78123 1.24823 8.79469 0 12 0C15.2053 0 18.2188 1.24823 20.4853 3.51469C22.7518 5.78123 24 8.79469 24 12C24 15.2053 22.7518 18.2188 20.4853 20.4853C18.2188 22.7518 15.2053 24 12 24Z" fill="#FFEA4C"/>
<path d="M20.4853 20.4853C22.7518 18.2188 24 15.2053 24 12C24 8.79469 22.7518 5.78123 20.4853 3.51469C18.2188 1.24823 15.2053 0 12 0V24C15.2053 24 18.2188 22.7518 20.4853 20.4853Z" fill="#FFD15E"/>
<path d="M10.5879 9.17285C10.1996 9.17285 9.88477 8.85804 9.88477 8.46973C9.88477 8.07879 9.56672 7.76074 9.17578 7.76074C8.78484 7.76074 8.4668 8.07879 8.4668 8.46973C8.4668 8.85804 8.15198 9.17285 7.76367 9.17285C7.37536 9.17285 7.06055 8.85804 7.06055 8.46973C7.06055 7.30338 8.00944 6.35449 9.17578 6.35449C10.3421 6.35449 11.291 7.30338 11.291 8.46973C11.291 8.85804 10.9762 9.17285 10.5879 9.17285Z" fill="#3B4851"/>
<path d="M16.2363 9.17285C15.848 9.17285 15.5332 8.85804 15.5332 8.46973C15.5332 8.07879 15.2152 7.76074 14.8242 7.76074C14.4333 7.76074 14.1152 8.07879 14.1152 8.46973C14.1152 8.85804 13.8004 9.17285 13.4121 9.17285C13.0238 9.17285 12.709 8.85804 12.709 8.46973C12.709 7.30338 13.6579 6.35449 14.8242 6.35449C15.9906 6.35449 16.9395 7.30338 16.9395 8.46973C16.9395 8.85804 16.6246 9.17285 16.2363 9.17285Z" fill="#1B2227"/>
<path d="M4.4686 13.8867C5.31328 17.2589 8.36953 19.7634 12 19.7634C15.6305 19.7634 18.6867 17.2589 19.5314 13.8867L12 12.5918L4.4686 13.8867Z" fill="#F71446"/>
<path d="M19.5314 13.8867L12 12.5918V19.7634C15.6305 19.7634 18.6867 17.2589 19.5314 13.8867Z" fill="#C91B3F"/>
<path d="M12 11.2969H4.9397C4.5511 11.2969 4.23657 11.6119 4.23657 12C4.23657 12.6506 4.3172 13.2825 4.4686 13.8867H12L12.375 12.5918L12 11.2969Z" fill="#F5F5FC"/>
<path d="M12 13.8867H19.5314C19.6828 13.2825 19.7634 12.6506 19.7634 12C19.7634 11.6119 19.4489 11.2969 19.0603 11.2969H12V13.8867Z" fill="#DADAED"/>
</g>
<defs>
<clipPath id="clip0_2246_715">
<rect width="24" height="24" fill="white"/>
</clipPath>
</defs>
</svg>
