<svg width="40" height="40" viewBox="0 0 40 40" fill="none" xmlns="http://www.w3.org/2000/svg">
<g clip-path="url(#clip0_2246_1293)">
<path d="M26.4731 27.0538C25.5811 27.0538 24.6891 26.7143 24.0101 26.0352L13.9648 15.99C12.6066 14.6318 12.6066 12.422 13.9648 11.0638L24.01 1.01861C25.3681 -0.339575 27.5779 -0.339496 28.9362 1.01861L38.9814 11.0639C40.3396 12.422 40.3396 14.6319 38.9814 15.9901L28.9362 26.0352C28.2572 26.7143 27.3651 27.0538 26.4731 27.0538Z" fill="#F5F5FC"/>
<path d="M28.9362 1.01856C28.2571 0.339545 27.3651 0 26.4731 0V27.0538C27.3651 27.0538 28.2572 26.7143 28.9362 26.0352L38.9814 15.99C40.3396 14.6319 40.3396 12.422 38.9814 11.0638L28.9362 1.01856Z" fill="#DADAED"/>
<path d="M17.6894 39.9999H3.48335C1.56264 39.9999 0 38.4373 0 36.5165V22.3105C0 20.3898 1.56264 18.8271 3.48335 18.8271H17.6894C19.6101 18.8271 21.1727 20.3898 21.1727 22.3105V36.5165C21.1727 38.4373 19.6101 39.9999 17.6894 39.9999Z" fill="#F5F5FC"/>
<path d="M17.6895 18.8271H10.5864V39.9999H17.6895C19.6102 39.9999 21.1728 38.4373 21.1728 36.5165V22.3105C21.1728 20.3898 19.6102 18.8271 17.6895 18.8271Z" fill="#DADAED"/>
<path d="M5.87909 25.8783C6.49208 25.8783 7.07937 25.3393 7.05101 24.7063C7.02257 24.0714 6.53607 23.5344 5.87909 23.5344C5.26609 23.5344 4.6788 24.0734 4.70716 24.7063C4.7356 25.3413 5.22211 25.8783 5.87909 25.8783Z" fill="#3B4851"/>
<path d="M10.5864 25.8783C11.1994 25.8783 11.7866 25.3393 11.7583 24.7063C11.7298 24.0714 11.2433 23.5344 10.5864 23.5344C9.97337 23.5344 9.38608 24.0734 9.41444 24.7063C9.44288 25.3413 9.92938 25.8783 10.5864 25.8783Z" fill="#3B4851"/>
<path d="M15.2936 25.8783C15.9066 25.8783 16.4939 25.3393 16.4656 24.7063C16.4371 24.0714 15.9506 23.5344 15.2936 23.5344C14.6806 23.5344 14.0934 24.0734 14.1217 24.7063C14.1502 25.3413 14.6367 25.8783 15.2936 25.8783Z" fill="#1B2227"/>
<path d="M5.87909 30.5855C6.49208 30.5855 7.07937 30.0465 7.05101 29.4136C7.02257 28.7787 6.53607 28.2417 5.87909 28.2417C5.26609 28.2417 4.6788 28.7807 4.70716 29.4136C4.7356 30.0486 5.22211 30.5855 5.87909 30.5855Z" fill="#3B4851"/>
<path d="M10.5864 30.5855C11.1994 30.5855 11.7866 30.0465 11.7583 29.4136C11.7298 28.7787 11.2433 28.2417 10.5864 28.2417C9.97337 28.2417 9.38608 28.7807 9.41444 29.4136C9.44288 30.0486 9.92938 30.5855 10.5864 30.5855Z" fill="#3B4851"/>
<path d="M15.2936 30.5855C15.9066 30.5855 16.4939 30.0465 16.4656 29.4136C16.4371 28.7787 15.9506 28.2417 15.2936 28.2417C14.6806 28.2417 14.0934 28.7807 14.1217 29.4136C14.1502 30.0486 14.6367 30.5855 15.2936 30.5855Z" fill="#1B2227"/>
<path d="M5.87909 35.2928C6.49208 35.2928 7.07937 34.7538 7.05101 34.1209C7.02257 33.4859 6.53607 32.949 5.87909 32.949C5.26609 32.949 4.6788 33.488 4.70716 34.1209C4.7356 34.7558 5.22211 35.2928 5.87909 35.2928Z" fill="#3B4851"/>
<path d="M10.5864 35.2928C11.1994 35.2928 11.7866 34.7538 11.7583 34.1209C11.7298 33.4859 11.2433 32.949 10.5864 32.949C9.97337 32.949 9.38608 33.488 9.41444 34.1209C9.44288 34.7558 9.92938 35.2928 10.5864 35.2928Z" fill="#3B4851"/>
<path d="M15.2936 35.2928C15.9066 35.2928 16.4939 34.7538 16.4656 34.1209C16.4371 33.4859 15.9506 32.949 15.2936 32.949C14.6806 32.949 14.0934 33.488 14.1217 34.1209C14.1502 34.7558 14.6367 35.2928 15.2936 35.2928Z" fill="#1B2227"/>
<path d="M26.4731 8.04184C27.0861 8.04184 27.6734 7.50284 27.645 6.86992C27.6166 6.23497 27.1301 5.698 26.4731 5.698C25.8601 5.698 25.2728 6.237 25.3012 6.86992C25.3296 7.50487 25.8161 8.04184 26.4731 8.04184Z" fill="#3B4851"/>
<path d="M26.4731 14.6988C27.0861 14.6988 27.6734 14.1598 27.645 13.5269C27.6166 12.892 27.1301 12.355 26.4731 12.355C25.8601 12.355 25.2728 12.894 25.3012 13.5269C25.3296 14.1619 25.8161 14.6988 26.4731 14.6988Z" fill="#3B4851"/>
<path d="M26.4731 21.3558C27.0861 21.3558 27.6734 20.8168 27.645 20.1839C27.6166 19.5489 27.1301 19.012 26.4731 19.012C25.8601 19.012 25.2728 19.551 25.3012 20.1839C25.3296 20.8188 25.8161 21.3558 26.4731 21.3558Z" fill="#3B4851"/>
<path d="M11.7583 34.1209C11.7299 33.4859 11.2434 32.949 10.5864 32.949V35.2928C11.1994 35.2928 11.7867 34.7538 11.7583 34.1209Z" fill="#1B2227"/>
<path d="M11.7583 29.4136C11.7299 28.7787 11.2434 28.2417 10.5864 28.2417V30.5855C11.1994 30.5855 11.7867 30.0465 11.7583 29.4136Z" fill="#1B2227"/>
<path d="M11.7583 24.7063C11.7299 24.0714 11.2434 23.5344 10.5864 23.5344V25.8783C11.1994 25.8783 11.7867 25.3393 11.7583 24.7063Z" fill="#1B2227"/>
<path d="M26.4731 19.012V21.3558C27.0861 21.3558 27.6734 20.8168 27.6451 20.1839C27.6166 19.5489 27.1301 19.012 26.4731 19.012Z" fill="#1B2227"/>
<path d="M26.4731 12.355V14.6988C27.0861 14.6988 27.6734 14.1598 27.6451 13.5269C27.6166 12.892 27.1301 12.355 26.4731 12.355Z" fill="#1B2227"/>
<path d="M26.4731 5.698V8.04184C27.0861 8.04184 27.6734 7.50284 27.6451 6.86992C27.6166 6.23497 27.1301 5.698 26.4731 5.698Z" fill="#1B2227"/>
</g>
<defs>
<clipPath id="clip0_2246_1293">
<rect width="40" height="40" fill="white"/>
</clipPath>
</defs>
</svg>
