<svg width="32" height="32" viewBox="0 0 32 32" fill="none" xmlns="http://www.w3.org/2000/svg">
<path d="M27.8012 15.6377L16.8261 0.438636C16.728 0.303176 16.5988 0.192761 16.4492 0.116496C16.2996 0.0402305 16.1338 0.000300854 15.9655 0H15.963C15.7941 0.000349627 15.6277 0.0406335 15.4776 0.117504C15.3276 0.194375 15.1982 0.305613 15.1003 0.441975L4.19596 15.6411C4.0831 15.7982 4.01619 15.983 4.00259 16.1754C3.98898 16.3677 4.02923 16.5601 4.11888 16.7312C4.20793 16.9026 4.34298 17.0463 4.50916 17.1465C4.67534 17.2467 4.86621 17.2996 5.06075 17.2992H10.1926L10.1922 30.9504C10.1921 31.0883 10.2195 31.2248 10.2727 31.3522C10.326 31.4796 10.404 31.5954 10.5025 31.6928C10.6009 31.7903 10.7178 31.8676 10.8464 31.9203C10.975 31.973 11.1128 32.0001 11.252 32L20.7469 31.9996C20.8861 31.9996 21.024 31.9725 21.1526 31.9197C21.2813 31.8669 21.3981 31.7896 21.4966 31.692C21.595 31.5944 21.673 31.4786 21.7263 31.3511C21.7795 31.2237 21.8068 31.0871 21.8067 30.9491V17.2996H26.9402C27.3362 17.2996 27.6997 17.0784 27.8825 16.7291C27.9718 16.5575 28.0115 16.3647 27.9971 16.1721C27.9828 15.9795 27.915 15.7946 27.8012 15.6377Z" fill="white"/>
</svg>
