<svg width="24" height="24" viewBox="0 0 24 24" fill="none" xmlns="http://www.w3.org/2000/svg">
<g clip-path="url(#clip0_1817_8138)">
<path d="M17.2778 23.6484H22.426C23.1011 23.6484 23.6484 23.1012 23.6484 22.426V17.2778V10.0371C23.6484 9.36201 23.1012 8.8147 22.426 8.8147H10.0371C9.36202 8.8147 8.8147 9.36196 8.8147 10.0371V22.4261C8.8147 23.1012 9.36197 23.6485 10.0371 23.6485H17.2778V23.6484Z" fill="#E0E0E2"/>
<path d="M17.2778 23.6484H22.426C23.1011 23.6484 23.6484 23.1011 23.6484 22.426V17.2778V10.0371C23.6484 9.36201 23.1011 8.8147 22.426 8.8147H16.2315V23.6484H17.2778Z" fill="#C6C5CB"/>
<path d="M13.6711 22.0711C14.4519 22.0711 15.0848 21.4381 15.0848 20.6573C15.0848 19.8765 14.4519 19.2436 13.6711 19.2436C12.8903 19.2436 12.2573 19.8765 12.2573 20.6573C12.2573 21.4381 12.8903 22.0711 13.6711 22.0711Z" fill="#898890"/>
<path d="M18.7917 22.0711C19.5725 22.0711 20.2055 21.4381 20.2055 20.6573C20.2055 19.8765 19.5725 19.2436 18.7917 19.2436C18.0109 19.2436 17.378 19.8765 17.378 20.6573C17.378 21.4381 18.0109 22.0711 18.7917 22.0711Z" fill="#898890"/>
<path d="M13.6711 17.6452C14.4519 17.6452 15.0848 17.0122 15.0848 16.2314C15.0848 15.4506 14.4519 14.8177 13.6711 14.8177C12.8903 14.8177 12.2573 15.4506 12.2573 16.2314C12.2573 17.0122 12.8903 17.6452 13.6711 17.6452Z" fill="#898890"/>
<path d="M18.7917 17.6452C19.5725 17.6452 20.2055 17.0122 20.2055 16.2314C20.2055 15.4506 19.5725 14.8177 18.7917 14.8177C18.0109 14.8177 17.378 15.4506 17.378 16.2314C17.378 17.0122 18.0109 17.6452 18.7917 17.6452Z" fill="#898890"/>
<path d="M13.6711 13.2197C14.4519 13.2197 15.0848 12.5868 15.0848 11.806C15.0848 11.0252 14.4519 10.3922 13.6711 10.3922C12.8903 10.3922 12.2573 11.0252 12.2573 11.806C12.2573 12.5868 12.8903 13.2197 13.6711 13.2197Z" fill="#898890"/>
<path d="M18.7917 13.2197C19.5725 13.2197 20.2055 12.5868 20.2055 11.806C20.2055 11.0252 19.5725 10.3922 18.7917 10.3922C18.0109 10.3922 17.378 11.0252 17.378 11.806C17.378 12.5868 18.0109 13.2197 18.7917 13.2197Z" fill="#898890"/>
<path d="M13.2007 11.8059C13.2007 11.1905 13.594 10.6672 14.1429 10.4729C13.9954 10.4207 13.8367 10.3921 13.6713 10.3921C12.8905 10.3921 12.2575 11.0251 12.2575 11.8059C12.2575 12.5867 12.8905 13.2197 13.6713 13.2197C13.8367 13.2197 13.9954 13.191 14.1429 13.1388C13.594 12.9446 13.2007 12.4213 13.2007 11.8059Z" fill="#57565C"/>
<path d="M18.3211 11.8059C18.3211 11.1905 18.7144 10.6672 19.2633 10.4729C19.1158 10.4207 18.9571 10.3921 18.7918 10.3921C18.0109 10.3921 17.378 11.0251 17.378 11.8059C17.378 12.5867 18.011 13.2197 18.7918 13.2197C18.9572 13.2197 19.1158 13.191 19.2633 13.1388C18.7145 12.9446 18.3211 12.4213 18.3211 11.8059Z" fill="#57565C"/>
<path d="M13.2007 16.2315C13.2007 15.6161 13.594 15.0928 14.1429 14.8986C13.9954 14.8464 13.8367 14.8177 13.6713 14.8177C12.8905 14.8177 12.2575 15.4507 12.2575 16.2315C12.2575 17.0123 12.8905 17.6453 13.6713 17.6453C13.8367 17.6453 13.9954 17.6167 14.1429 17.5645C13.594 17.3703 13.2007 16.847 13.2007 16.2315Z" fill="#57565C"/>
<path d="M18.3211 16.2315C18.3211 15.6161 18.7144 15.0928 19.2633 14.8986C19.1158 14.8464 18.9571 14.8177 18.7918 14.8177C18.0109 14.8177 17.378 15.4507 17.378 16.2315C17.378 17.0123 18.011 17.6453 18.7918 17.6453C18.9572 17.6453 19.1158 17.6167 19.2633 17.5645C18.7145 17.3703 18.3211 16.847 18.3211 16.2315Z" fill="#57565C"/>
<path d="M13.2007 20.6573C13.2007 20.0418 13.594 19.5185 14.1429 19.3243C13.9954 19.2721 13.8367 19.2435 13.6713 19.2435C12.8905 19.2435 12.2575 19.8765 12.2575 20.6573C12.2575 21.4381 12.8905 22.0711 13.6713 22.0711C13.8367 22.0711 13.9954 22.0424 14.1429 21.9902C13.594 21.796 13.2007 21.2727 13.2007 20.6573Z" fill="#57565C"/>
<path d="M18.3211 20.6573C18.3211 20.0418 18.7144 19.5185 19.2633 19.3243C19.1158 19.2721 18.9571 19.2435 18.7918 19.2435C18.0109 19.2435 17.378 19.8765 17.378 20.6573C17.378 21.4381 18.011 22.0711 18.7918 22.0711C18.9572 22.0711 19.1158 22.0424 19.2633 21.9902C18.7145 21.796 18.3211 21.2727 18.3211 20.6573Z" fill="#57565C"/>
<path d="M15.1853 8.8147V1.57397C15.1853 0.898875 14.638 0.351562 13.9629 0.351562H1.57397C0.898828 0.351562 0.351562 0.898828 0.351562 1.57397V13.9629C0.351562 14.638 0.898828 15.1853 1.57397 15.1853H8.8147V10.0371C8.8147 9.36202 9.36197 8.8147 10.0371 8.8147H15.1853Z" fill="#E0E0E2"/>
<path d="M15.1111 1.15363C15.1317 1.20978 15.1483 1.26791 15.1605 1.32758C15.1483 1.26791 15.1317 1.20983 15.1111 1.15363Z" fill="#C6C5CB"/>
<path d="M15.1712 1.38776C15.1805 1.44846 15.1853 1.51062 15.1853 1.5739C15.1853 1.51066 15.1805 1.44846 15.1712 1.38776Z" fill="#C6C5CB"/>
<path d="M14.9425 0.84259C14.966 0.87395 14.988 0.906528 15.0083 0.940137C14.9879 0.906528 14.9659 0.873997 14.9425 0.84259Z" fill="#C6C5CB"/>
<path d="M15.1605 1.32758C15.1483 1.26791 15.1317 1.20978 15.1111 1.15363C15.0837 1.07872 15.0492 1.00728 15.0083 0.940064C14.9879 0.906455 14.9659 0.873923 14.9425 0.842517C14.8721 0.748392 14.7885 0.664767 14.6943 0.594361C14.663 0.570876 14.6304 0.548892 14.5968 0.528501C14.5296 0.487673 14.4581 0.453126 14.3832 0.425705C14.3271 0.405126 14.2689 0.38858 14.2093 0.376345C14.1893 0.372267 14.1693 0.368705 14.1491 0.365611C14.0884 0.35633 14.0262 0.351501 13.9629 0.351501H7.76846V15.1852H8.81471V10.0371C8.81471 9.362 9.36202 8.81469 10.0371 8.81469H15.1853V1.57395C15.1853 1.51067 15.1805 1.44847 15.1712 1.38781C15.1681 1.36756 15.1645 1.3475 15.1605 1.32758Z" fill="#C6C5CB"/>
<path d="M3.9975 5.3217C4.77829 5.3217 5.41125 4.68874 5.41125 3.90795C5.41125 3.12716 4.77829 2.4942 3.9975 2.4942C3.21671 2.4942 2.58375 3.12716 2.58375 3.90795C2.58375 4.68874 3.21671 5.3217 3.9975 5.3217Z" fill="#898890"/>
<path d="M11.5392 5.3217C12.32 5.3217 12.953 4.68874 12.953 3.90795C12.953 3.12716 12.32 2.4942 11.5392 2.4942C10.7584 2.4942 10.1255 3.12716 10.1255 3.90795C10.1255 4.68874 10.7584 5.3217 11.5392 5.3217Z" fill="#898890"/>
<path d="M3.9975 13.0425C4.77829 13.0425 5.41125 12.4095 5.41125 11.6287C5.41125 10.8479 4.77829 10.215 3.9975 10.215C3.21671 10.215 2.58375 10.8479 2.58375 11.6287C2.58375 12.4095 3.21671 13.0425 3.9975 13.0425Z" fill="#898890"/>
<path d="M11.0686 3.90812C11.0686 3.2927 11.4619 2.76939 12.0108 2.57518C11.8633 2.52296 11.7046 2.49432 11.5392 2.49432C10.7584 2.49432 10.1254 3.12732 10.1254 3.90812C10.1254 4.68892 10.7584 5.32192 11.5392 5.32192C11.7046 5.32192 11.8633 5.29323 12.0108 5.24106C11.4619 5.04685 11.0686 4.52354 11.0686 3.90812Z" fill="#57565C"/>
<path d="M3.52697 3.90812C3.52697 3.2927 3.9203 2.76939 4.46921 2.57518C4.32169 2.52296 4.16302 2.49432 3.99764 2.49432C3.2168 2.49432 2.58385 3.12732 2.58385 3.90812C2.58385 4.68892 3.21685 5.32192 3.99764 5.32192C4.16307 5.32192 4.32169 5.29323 4.46921 5.24106C3.92035 5.04685 3.52697 4.52354 3.52697 3.90812Z" fill="#57565C"/>
<path d="M3.52697 11.6288C3.52697 11.0133 3.9203 10.49 4.46921 10.2958C4.32169 10.2436 4.16302 10.215 3.99764 10.215C3.2168 10.215 2.58385 10.848 2.58385 11.6288C2.58385 12.4096 3.21685 13.0426 3.99764 13.0426C4.16307 13.0426 4.32169 13.0139 4.46921 12.9617C3.92035 12.7675 3.52697 12.2442 3.52697 11.6288Z" fill="#57565C"/>
<path d="M15.1605 7.62415H8.9281C8.28764 7.62415 7.76846 8.14333 7.76846 8.78379V15.1853H8.81471V9.97432C8.81471 9.33386 9.33389 8.81468 9.97435 8.81468H15.1853L15.1605 7.62415Z" fill="#C6C5CB"/>
<path d="M7.29778 7.76847C7.29778 7.15305 7.69111 6.62974 8.24001 6.43553C8.0925 6.38332 7.93382 6.35468 7.76845 6.35468C6.98761 6.35468 6.35465 6.98768 6.35465 7.76847C6.35465 8.54927 6.98765 9.18227 7.76845 9.18227C7.93387 9.18227 8.0925 9.15358 8.24001 9.10141C7.69111 8.90721 7.29778 8.38389 7.29778 7.76847Z" fill="#57565C"/>
<path d="M9.18225 7.76842C9.18225 7.153 8.78892 6.62969 8.24002 6.43549C7.69111 6.62969 7.29778 7.153 7.29778 7.76842C7.29778 8.38385 7.69111 8.90716 8.24002 9.10136C8.78892 8.90716 9.18225 8.38385 9.18225 7.76842Z" fill="#898890"/>
<path d="M22.944 12.4712H22.2409V10.2684C22.2409 10.243 22.2202 10.2222 22.1947 10.2222H21.5398V9.5191H22.1947C22.6079 9.5191 22.944 9.85524 22.944 10.2684V12.4712Z" fill="white"/>
<path d="M22.9439 12.9604H22.2408V13.9382H22.9439V12.9604Z" fill="white"/>
<path d="M10.222 17.5486H9.51891V21.8733H10.222V17.5486Z" fill="white"/>
<path d="M22.426 8.46309H15.5369V1.57397C15.5369 0.706078 14.8308 0 13.9629 0H1.57397C0.706078 0 0 0.706078 0 1.57397V13.9629C0 14.8308 0.706078 15.5369 1.57397 15.5369H8.46314V22.426C8.46314 23.2939 9.16922 24 10.0371 24H22.426C23.2939 24 24 23.2939 24 22.426V10.0371C24 9.16917 23.2939 8.46309 22.426 8.46309ZM1.57397 14.8337C1.09378 14.8337 0.703125 14.4431 0.703125 13.9629V1.57397C0.703125 1.09378 1.09378 0.703125 1.57397 0.703125H13.9629C14.4431 0.703125 14.8337 1.09378 14.8337 1.57397V8.46309H10.0371C9.7702 8.46309 9.51867 8.53008 9.29822 8.64783C9.4478 8.3887 9.53386 8.08852 9.53386 7.76841C9.53386 6.79495 8.74186 6.003 7.76845 6.003C6.79505 6.003 6.00309 6.79495 6.00309 7.76841C6.00309 8.74186 6.79505 9.53381 7.76845 9.53381C8.08856 9.53381 8.38875 9.44775 8.64792 9.29817C8.53017 9.51867 8.46319 9.77016 8.46319 10.0371V14.8337H1.57397ZM8.83073 7.76845C8.83073 8.3542 8.3542 8.83073 7.76845 8.83073C7.18275 8.83073 6.70622 8.3542 6.70622 7.76845C6.70622 7.1827 7.18275 6.70617 7.76845 6.70617C8.3542 6.70617 8.83073 7.1827 8.83073 7.76845ZM23.2969 22.426C23.2969 22.9062 22.9062 23.2969 22.426 23.2969H10.0371C9.55692 23.2969 9.16627 22.9062 9.16627 22.426V15.5369V10.0371C9.16627 9.55692 9.55692 9.16627 10.0371 9.16627H15.5369H22.426C22.9062 9.16627 23.2969 9.55692 23.2969 10.0371V22.426Z" fill="black"/>
<path d="M13.6713 18.8918C12.6979 18.8918 11.906 19.6838 11.906 20.6573C11.906 21.6307 12.6979 22.4227 13.6713 22.4227C14.6447 22.4227 15.4367 21.6307 15.4367 20.6573C15.4367 19.6838 14.6448 18.8918 13.6713 18.8918ZM13.6713 21.7195C13.0856 21.7195 12.6091 21.243 12.6091 20.6573C12.6091 20.0715 13.0856 19.595 13.6713 19.595C14.257 19.595 14.7336 20.0715 14.7336 20.6573C14.7336 21.243 14.257 21.7195 13.6713 21.7195Z" fill="black"/>
<path d="M18.7918 18.8918C17.8184 18.8918 17.0264 19.6838 17.0264 20.6573C17.0264 21.6307 17.8184 22.4227 18.7918 22.4227C19.7652 22.4227 20.5572 21.6307 20.5572 20.6573C20.5572 19.6838 19.7652 18.8918 18.7918 18.8918ZM18.7918 21.7195C18.2061 21.7195 17.7295 21.243 17.7295 20.6573C17.7295 20.0715 18.2061 19.595 18.7918 19.595C19.3775 19.595 19.854 20.0715 19.854 20.6573C19.854 21.243 19.3775 21.7195 18.7918 21.7195Z" fill="black"/>
<path d="M13.6713 14.4662C12.6979 14.4662 11.906 15.2581 11.906 16.2316C11.906 17.205 12.6979 17.997 13.6713 17.997C14.6447 17.997 15.4367 17.205 15.4367 16.2316C15.4367 15.2581 14.6448 14.4662 13.6713 14.4662ZM13.6713 17.2938C13.0856 17.2938 12.6091 16.8173 12.6091 16.2315C12.6091 15.6458 13.0856 15.1693 13.6713 15.1693C14.257 15.1693 14.7336 15.6458 14.7336 16.2315C14.7336 16.8173 14.257 17.2938 13.6713 17.2938Z" fill="black"/>
<path d="M18.7918 14.4662C17.8184 14.4662 17.0264 15.2581 17.0264 16.2316C17.0264 17.205 17.8184 17.997 18.7918 17.997C19.7652 17.997 20.5572 17.205 20.5572 16.2316C20.5572 15.2581 19.7652 14.4662 18.7918 14.4662ZM18.7918 17.2938C18.2061 17.2938 17.7295 16.8173 17.7295 16.2315C17.7295 15.6458 18.2061 15.1693 18.7918 15.1693C19.3775 15.1693 19.854 15.6458 19.854 16.2315C19.854 16.8173 19.3775 17.2938 18.7918 17.2938Z" fill="black"/>
<path d="M13.6713 10.0405C12.6979 10.0405 11.906 10.8324 11.906 11.8058C11.906 12.7792 12.6979 13.5712 13.6713 13.5712C14.6447 13.5712 15.4367 12.7793 15.4367 11.8058C15.4367 10.8324 14.6448 10.0405 13.6713 10.0405ZM13.6713 12.8681C13.0856 12.8681 12.6091 12.3916 12.6091 11.8058C12.6091 11.2201 13.0856 10.7436 13.6713 10.7436C14.257 10.7436 14.7336 11.2201 14.7336 11.8058C14.7336 12.3915 14.257 12.8681 13.6713 12.8681Z" fill="black"/>
<path d="M18.7918 10.0405C17.8184 10.0405 17.0264 10.8324 17.0264 11.8058C17.0264 12.7792 17.8184 13.5712 18.7918 13.5712C19.7652 13.5712 20.5572 12.7793 20.5572 11.8058C20.5572 10.8324 19.7652 10.0405 18.7918 10.0405ZM18.7918 12.8681C18.2061 12.8681 17.7295 12.3916 17.7295 11.8058C17.7295 11.2201 18.2061 10.7436 18.7918 10.7436C19.3775 10.7436 19.854 11.2201 19.854 11.8058C19.854 12.3915 19.3775 12.8681 18.7918 12.8681Z" fill="black"/>
<path d="M3.99764 2.1427C3.02419 2.1427 2.23228 2.93465 2.23228 3.90811C2.23228 4.88156 3.02424 5.67347 3.99764 5.67347C4.97105 5.67347 5.763 4.88151 5.763 3.90811C5.763 2.9347 4.9711 2.1427 3.99764 2.1427ZM3.99764 4.97034C3.41194 4.97034 2.93541 4.49381 2.93541 3.90811C2.93541 3.3224 3.41194 2.84583 3.99764 2.84583C4.58335 2.84583 5.05988 3.32236 5.05988 3.90811C5.05988 4.49386 4.58335 4.97034 3.99764 4.97034Z" fill="black"/>
<path d="M11.5392 5.67347C12.5127 5.67347 13.3046 4.88151 13.3046 3.90811C13.3046 2.9347 12.5126 2.1427 11.5392 2.1427C10.5658 2.1427 9.77386 2.93465 9.77386 3.90811C9.77386 4.88156 10.5658 5.67347 11.5392 5.67347ZM11.5392 2.84583C12.125 2.84583 12.6015 3.32236 12.6015 3.90811C12.6015 4.49386 12.125 4.97034 11.5392 4.97034C10.9535 4.97034 10.477 4.49381 10.477 3.90811C10.477 3.3224 10.9535 2.84583 11.5392 2.84583Z" fill="black"/>
<path d="M3.99764 9.8634C3.02419 9.8634 2.23228 10.6554 2.23228 11.6288C2.23228 12.6023 3.02424 13.3942 3.99764 13.3942C4.97105 13.3942 5.763 12.6023 5.763 11.6288C5.763 10.6554 4.9711 9.8634 3.99764 9.8634ZM3.99764 12.691C3.41194 12.691 2.93541 12.2145 2.93541 11.6288C2.93541 11.043 3.41194 10.5665 3.99764 10.5665C4.58335 10.5665 5.05988 11.043 5.05988 11.6288C5.05988 12.2145 4.58335 12.691 3.99764 12.691Z" fill="black"/>
<path d="M19.1433 3.56439H18.4402V4.21117H19.1433V3.56439Z" fill="black"/>
<path d="M21.345 5.75903H20.6419V6.40581H21.345V5.75903Z" fill="black"/>
<path d="M5.29641 16.5506H4.59328V17.1974H5.29641V16.5506Z" fill="black"/>
<path d="M2.35687 21.3914H1.65375V22.0382H2.35687V21.3914Z" fill="black"/>
</g>
<defs>
<clipPath id="clip0_1817_8138">
<rect width="24" height="24" fill="white"/>
</clipPath>
</defs>
</svg>
