<svg width="156" height="32" viewBox="0 0 156 32" fill="none" xmlns="http://www.w3.org/2000/svg">
<path d="M12.0567 4.34C13.1767 4.34 14.2067 4.48 15.1467 4.76C16.1067 5.02 17.0767 5.44 18.0567 6.02L18.7467 5.45C19.2267 5.07 19.6167 4.81 19.9167 4.67C20.2367 4.53 20.5967 4.46 20.9967 4.46C21.4767 4.46 21.8567 4.57 22.1367 4.79C22.4167 4.99 22.5567 5.29 22.5567 5.69C22.5567 5.85 22.5267 6.02 22.4667 6.2L21.2067 10.34C21.0667 10.82 20.8867 11.16 20.6667 11.36C20.4667 11.56 20.1567 11.66 19.7367 11.66C19.2967 11.66 18.9067 11.53 18.5667 11.27C18.2467 10.99 17.7367 10.43 17.0367 9.59C16.3367 8.79 15.6967 8.23 15.1167 7.91C14.5567 7.57 13.9767 7.4 13.3767 7.4C12.9367 7.4 12.5667 7.55 12.2667 7.85C11.9667 8.13 11.8167 8.48 11.8167 8.9C11.8167 9.38 12.0567 9.83 12.5367 10.25C13.0167 10.65 13.7667 11.16 14.7867 11.78C15.8267 12.4 16.6867 12.96 17.3667 13.46C18.0467 13.96 18.6267 14.58 19.1067 15.32C19.5867 16.06 19.8267 16.91 19.8267 17.87C19.8267 18.49 19.7267 19.11 19.5267 19.73C19.0467 21.33 18.1167 22.55 16.7367 23.39C15.3567 24.21 13.7467 24.62 11.9067 24.62C10.5267 24.62 9.36674 24.46 8.42674 24.14C7.48674 23.82 6.52674 23.28 5.54674 22.52L4.46674 23.42C3.96674 23.84 3.55674 24.13 3.23674 24.29C2.91674 24.43 2.55674 24.5 2.15674 24.5C1.69674 24.5 1.32674 24.39 1.04674 24.17C0.786738 23.95 0.656738 23.65 0.656738 23.27C0.656738 23.07 0.696738 22.86 0.776738 22.64L2.24674 18.17C2.40674 17.65 2.62674 17.28 2.90674 17.06C3.18674 16.84 3.54674 16.73 3.98674 16.73C4.44674 16.73 4.85674 16.89 5.21674 17.21C5.59674 17.53 6.08674 18.11 6.68674 18.95C7.32674 19.87 7.91674 20.51 8.45674 20.87C9.01674 21.23 9.67674 21.41 10.4367 21.41C10.9767 21.41 11.3867 21.33 11.6667 21.17C11.9667 20.99 12.1767 20.71 12.2967 20.33C12.3367 20.23 12.3567 20.08 12.3567 19.88C12.3567 19.4 12.1267 18.96 11.6667 18.56C11.2067 18.16 10.4967 17.68 9.53674 17.12C8.51674 16.5 7.68674 15.95 7.04674 15.47C6.40674 14.97 5.84674 14.35 5.36674 13.61C4.90674 12.87 4.67674 12 4.67674 11C4.67674 10.3 4.78674 9.61 5.00674 8.93C5.42674 7.55 6.28674 6.44 7.58674 5.6C8.88674 4.76 10.3767 4.34 12.0567 4.34Z" fill="url(#paint0_linear_1657_2766)"/>
<path d="M37.2103 8.51C38.7503 8.51 39.9603 9.02 40.8403 10.04C41.7203 11.06 42.1603 12.45 42.1603 14.21C42.1603 15.15 42.0303 16.14 41.7703 17.18C41.1703 19.66 40.0503 21.55 38.4103 22.85C36.7703 24.13 34.8703 24.77 32.7103 24.77C31.3303 24.77 30.1303 24.48 29.1103 23.9L28.1503 27.11C28.0703 27.33 28.0303 27.54 28.0303 27.74C28.0303 27.96 28.0803 28.14 28.1803 28.28C28.2803 28.44 28.4103 28.59 28.5703 28.73C28.7303 28.89 28.8303 29.02 28.8703 29.12C28.9303 29.22 28.9403 29.34 28.9003 29.48C28.8203 29.74 28.6303 29.92 28.3303 30.02C28.0303 30.14 27.5703 30.2 26.9503 30.2H20.0803C19.5603 30.2 19.1903 30.11 18.9703 29.93C18.7303 29.77 18.6603 29.56 18.7603 29.3C18.8003 29.14 18.8703 29.01 18.9703 28.91C19.0703 28.81 19.2103 28.72 19.3903 28.64C19.6903 28.44 19.9303 28.23 20.1103 28.01C20.2903 27.81 20.4503 27.48 20.5903 27.02L24.9703 12.65C25.0303 12.47 25.0603 12.32 25.0603 12.2C25.0603 11.98 25.0103 11.81 24.9103 11.69C24.8103 11.55 24.6603 11.41 24.4603 11.27C24.2603 11.11 24.1203 10.97 24.0403 10.85C23.9603 10.73 23.9503 10.57 24.0103 10.37C24.1303 9.91 24.7603 9.51 25.9003 9.17C27.0403 8.81 28.2303 8.63 29.4703 8.63C30.3503 8.63 31.0703 8.85 31.6303 9.29C32.2103 9.73 32.5403 10.34 32.6203 11.12C33.9803 9.38 35.5103 8.51 37.2103 8.51ZM33.7303 17.42C34.2103 15.64 34.4503 14.41 34.4503 13.73C34.4503 13.31 34.3803 13.04 34.2403 12.92C34.1203 12.78 33.9403 12.71 33.7003 12.71C33.5203 12.71 33.2903 12.8 33.0103 12.98C32.7303 13.14 32.4503 13.42 32.1703 13.82L29.8003 21.68C30.0403 21.92 30.3303 22.04 30.6703 22.04C31.2103 22.04 31.7203 21.74 32.2003 21.14C32.7003 20.52 33.2103 19.28 33.7303 17.42Z" fill="url(#paint1_linear_1657_2766)"/>
<path d="M50.1525 8.63C51.3125 8.63 52.1625 8.85 52.7025 9.29C53.2425 9.73 53.5125 10.33 53.5125 11.09C53.5125 11.55 53.4425 11.99 53.3025 12.41L50.5425 21.38C50.4825 21.62 50.4525 21.83 50.4525 22.01C50.4525 22.27 50.5025 22.48 50.6025 22.64C50.7025 22.78 50.8425 22.92 51.0225 23.06C51.1625 23.2 51.2625 23.32 51.3225 23.42C51.3825 23.5 51.3925 23.61 51.3525 23.75C51.2525 24.01 51.0525 24.2 50.7525 24.32C50.4525 24.44 49.9925 24.5 49.3725 24.5H42.5325C42.0125 24.5 41.6325 24.42 41.3925 24.26C41.1525 24.08 41.0725 23.85 41.1525 23.57C41.2325 23.33 41.4425 23.12 41.7825 22.94C42.0825 22.78 42.3325 22.59 42.5325 22.37C42.7325 22.15 42.9025 21.8 43.0425 21.32L45.6525 12.65C45.7125 12.47 45.7425 12.32 45.7425 12.2C45.7425 11.98 45.6925 11.81 45.5925 11.69C45.4925 11.55 45.3425 11.41 45.1425 11.27C44.9425 11.11 44.8025 10.97 44.7225 10.85C44.6425 10.73 44.6325 10.57 44.6925 10.37C44.8125 9.91 45.4425 9.51 46.5825 9.17C47.7225 8.81 48.9125 8.63 50.1525 8.63ZM52.1625 2C52.9425 2 53.5925 2.26 54.1125 2.78C54.6325 3.28 54.8925 3.9 54.8925 4.64C54.8925 5.16 54.7525 5.67 54.4725 6.17C54.2125 6.67 53.8325 7.08 53.3325 7.4C52.8525 7.7 52.3125 7.85 51.7125 7.85C50.9525 7.85 50.3125 7.6 49.7925 7.1C49.2925 6.58 49.0325 5.94 49.0125 5.18C49.0125 4.68 49.1425 4.19 49.4025 3.71C49.6625 3.21 50.0325 2.8 50.5125 2.48C50.9925 2.16 51.5425 2 52.1625 2Z" fill="url(#paint2_linear_1657_2766)"/>
<path d="M71.8188 20.36C71.7788 20.44 71.7589 20.56 71.7589 20.72C71.7589 20.86 71.7888 20.97 71.8488 21.05C71.9288 21.13 72.0288 21.17 72.1488 21.17C72.3888 21.17 72.5888 21.07 72.7488 20.87C72.9288 20.65 73.0489 20.54 73.1088 20.54C73.2088 20.54 73.2888 20.61 73.3488 20.75C73.4088 20.87 73.4389 21.02 73.4389 21.2C73.4588 21.78 73.2689 22.35 72.8689 22.91C72.4688 23.45 71.8788 23.9 71.0988 24.26C70.3388 24.6 69.4189 24.77 68.3389 24.77C67.0189 24.77 65.9688 24.47 65.1889 23.87C64.4089 23.25 64.0089 22.43 63.9888 21.41C63.9888 20.67 64.1688 19.84 64.5288 18.92L66.1788 14.6C66.2788 14.34 66.3288 14.13 66.3288 13.97C66.3288 13.71 66.2388 13.51 66.0588 13.37C65.8988 13.21 65.6988 13.13 65.4588 13.13C65.0188 13.13 64.5989 13.34 64.1988 13.76C63.7989 14.16 63.5089 14.66 63.3288 15.26L61.4688 21.38C61.3888 21.6 61.3488 21.81 61.3488 22.01C61.3488 22.25 61.3988 22.45 61.4988 22.61C61.5988 22.75 61.7388 22.9 61.9188 23.06C62.0588 23.18 62.1588 23.29 62.2188 23.39C62.2789 23.49 62.2888 23.61 62.2488 23.75C62.1688 24.01 61.9788 24.2 61.6788 24.32C61.3788 24.44 60.9088 24.5 60.2688 24.5H53.4288C52.9088 24.5 52.5388 24.42 52.3188 24.26C52.0788 24.08 51.9888 23.85 52.0488 23.57C52.1288 23.33 52.3388 23.12 52.6788 22.94C52.9788 22.78 53.2288 22.59 53.4288 22.37C53.6288 22.15 53.7988 21.8 53.9388 21.32L56.6088 12.65C56.6488 12.55 56.6688 12.41 56.6688 12.23C56.6688 12.01 56.6188 11.84 56.5188 11.72C56.4388 11.6 56.2988 11.45 56.0988 11.27C55.8988 11.11 55.7589 10.97 55.6788 10.85C55.5989 10.73 55.5888 10.57 55.6488 10.37C55.7688 9.91 56.3988 9.51 57.5388 9.17C58.6788 8.81 59.8688 8.63 61.1088 8.63C62.1088 8.63 62.8988 8.91 63.4788 9.47C64.0588 10.01 64.3188 10.77 64.2588 11.75C65.0788 10.57 65.9489 9.76 66.8689 9.32C67.7888 8.86 68.7888 8.63 69.8689 8.63C71.0889 8.63 72.0688 9 72.8088 9.74C73.5688 10.48 73.9489 11.44 73.9489 12.62C73.9489 13.24 73.8489 13.85 73.6488 14.45L71.8188 20.36Z" fill="url(#paint3_linear_1657_2766)"/>
<path d="M85.4335 8.63C87.7335 8.63 89.5735 9.06 90.9535 9.92C92.3335 10.76 93.0235 12.05 93.0235 13.79C93.0235 14.45 92.9035 15.2 92.6635 16.04L91.4335 20.18C91.4135 20.26 91.4035 20.36 91.4035 20.48C91.4035 20.8 91.5335 20.96 91.7935 20.96C92.0335 20.96 92.2335 20.86 92.3935 20.66C92.5735 20.44 92.6935 20.33 92.7535 20.33C92.8535 20.33 92.9335 20.4 92.9935 20.54C93.0735 20.68 93.1135 20.84 93.1135 21.02C93.1335 21.56 92.9235 22.11 92.4835 22.67C92.0635 23.23 91.4935 23.69 90.7735 24.05C90.0535 24.41 89.2635 24.59 88.4035 24.59C87.3635 24.59 86.4735 24.4 85.7335 24.02C84.9935 23.64 84.4835 23.08 84.2035 22.34C83.6035 23.06 82.8935 23.62 82.0735 24.02C81.2535 24.4 80.3735 24.59 79.4335 24.59C78.3735 24.59 77.4835 24.39 76.7635 23.99C76.0435 23.57 75.5035 23.04 75.1435 22.4C74.8035 21.74 74.6335 21.05 74.6335 20.33C74.6335 20.01 74.6635 19.7 74.7235 19.4C75.0435 18.02 75.7335 16.98 76.7935 16.28C77.8735 15.58 79.1535 15.23 80.6335 15.23C82.2935 15.23 83.9235 15.49 85.5235 16.01L86.2735 14.03C86.5335 13.19 86.6635 12.54 86.6635 12.08C86.6435 11.6 86.4835 11.24 86.1835 11C85.8835 10.76 85.4235 10.64 84.8035 10.64C84.9235 10.96 84.9835 11.29 84.9835 11.63C84.9835 12.37 84.7035 13.01 84.1435 13.55C83.5835 14.09 82.7835 14.36 81.7435 14.36C80.7635 14.36 79.9935 14.15 79.4335 13.73C78.8935 13.29 78.6235 12.75 78.6235 12.11C78.6235 11.11 79.1835 10.28 80.3035 9.62C81.4235 8.96 83.1335 8.63 85.4335 8.63ZM83.7535 17.72C83.1935 17.72 82.7335 17.94 82.3735 18.38C82.0335 18.8 81.8635 19.26 81.8635 19.76C81.8635 20.08 81.9335 20.34 82.0735 20.54C82.2335 20.74 82.4535 20.84 82.7335 20.84C82.9935 20.84 83.2735 20.74 83.5735 20.54C83.8935 20.32 84.1235 20 84.2635 19.58L84.8935 17.81C84.5535 17.75 84.1735 17.72 83.7535 17.72Z" fill="url(#paint4_linear_1657_2766)"/>
<path d="M112.922 20.36C112.882 20.44 112.862 20.56 112.862 20.72C112.862 20.86 112.892 20.97 112.952 21.05C113.032 21.13 113.132 21.17 113.252 21.17C113.492 21.17 113.692 21.07 113.852 20.87C114.032 20.65 114.152 20.54 114.212 20.54C114.312 20.54 114.392 20.61 114.452 20.75C114.512 20.87 114.542 21.02 114.542 21.2C114.562 21.78 114.372 22.35 113.972 22.91C113.572 23.45 112.982 23.9 112.202 24.26C111.442 24.6 110.522 24.77 109.442 24.77C108.122 24.77 107.072 24.47 106.292 23.87C105.512 23.25 105.112 22.43 105.092 21.41C105.092 20.67 105.272 19.84 105.632 18.92L107.282 14.6C107.382 14.34 107.432 14.13 107.432 13.97C107.432 13.71 107.342 13.51 107.162 13.37C107.002 13.21 106.802 13.13 106.562 13.13C106.122 13.13 105.702 13.34 105.302 13.76C104.902 14.16 104.612 14.66 104.432 15.26L102.572 21.38C102.492 21.6 102.452 21.81 102.452 22.01C102.452 22.25 102.502 22.45 102.602 22.61C102.702 22.75 102.842 22.9 103.022 23.06C103.162 23.18 103.262 23.29 103.322 23.39C103.382 23.49 103.392 23.61 103.352 23.75C103.272 24.01 103.082 24.2 102.782 24.32C102.482 24.44 102.012 24.5 101.372 24.5H94.5324C94.0124 24.5 93.6424 24.42 93.4224 24.26C93.1824 24.08 93.0924 23.85 93.1524 23.57C93.2324 23.33 93.4424 23.12 93.7824 22.94C94.0824 22.78 94.3324 22.59 94.5324 22.37C94.7324 22.15 94.9024 21.8 95.0424 21.32L97.7124 12.65C97.7524 12.55 97.7724 12.41 97.7724 12.23C97.7724 12.01 97.7224 11.84 97.6224 11.72C97.5424 11.6 97.4024 11.45 97.2024 11.27C97.0024 11.11 96.8624 10.97 96.7824 10.85C96.7024 10.73 96.6924 10.57 96.7524 10.37C96.8724 9.91 97.5024 9.51 98.6424 9.17C99.7824 8.81 100.972 8.63 102.212 8.63C103.212 8.63 104.002 8.91 104.582 9.47C105.162 10.01 105.422 10.77 105.362 11.75C106.182 10.57 107.052 9.76 107.972 9.32C108.892 8.86 109.892 8.63 110.972 8.63C112.192 8.63 113.172 9 113.912 9.74C114.672 10.48 115.052 11.44 115.052 12.62C115.052 13.24 114.952 13.85 114.752 14.45L112.922 20.36Z" fill="url(#paint5_linear_1657_2766)"/>
<path d="M132.597 20.18C132.557 20.34 132.537 20.45 132.537 20.51C132.537 20.65 132.577 20.76 132.657 20.84C132.737 20.92 132.837 20.96 132.957 20.96C133.197 20.96 133.397 20.86 133.557 20.66C133.737 20.44 133.857 20.33 133.917 20.33C134.017 20.33 134.097 20.4 134.157 20.54C134.217 20.68 134.247 20.84 134.247 21.02C134.267 21.56 134.057 22.11 133.617 22.67C133.197 23.23 132.627 23.69 131.907 24.05C131.187 24.41 130.407 24.59 129.567 24.59C128.567 24.59 127.697 24.4 126.957 24.02C126.217 23.64 125.707 23.14 125.427 22.52C124.887 23.22 124.267 23.74 123.567 24.08C122.867 24.42 122.127 24.59 121.347 24.59C120.427 24.59 119.567 24.36 118.767 23.9C117.987 23.44 117.357 22.79 116.877 21.95C116.417 21.09 116.187 20.12 116.187 19.04C116.187 17.22 116.527 15.51 117.207 13.91C117.907 12.29 118.877 10.99 120.117 10.01C121.357 9.01 122.767 8.51 124.347 8.51C125.207 8.51 125.937 8.61 126.537 8.81C127.157 9.01 127.717 9.31 128.217 9.71L129.237 6.35C129.297 6.17 129.327 6.02 129.327 5.9C129.327 5.68 129.267 5.5 129.147 5.36C129.047 5.22 128.907 5.08 128.727 4.94C128.527 4.78 128.377 4.64 128.277 4.52C128.197 4.4 128.187 4.24 128.247 4.04C128.367 3.58 128.997 3.18 130.137 2.84C131.277 2.5 132.467 2.33 133.707 2.33C134.867 2.33 135.717 2.55 136.257 2.99C136.817 3.43 137.097 4.03 137.097 4.79C137.097 5.23 137.027 5.66 136.887 6.08L132.597 20.18ZM127.587 11.75C127.267 11.47 126.917 11.33 126.537 11.33C125.957 11.33 125.387 11.76 124.827 12.62C124.267 13.48 123.817 14.52 123.477 15.74C123.137 16.96 122.977 18.06 122.997 19.04C122.997 20.14 123.357 20.69 124.077 20.69C124.337 20.69 124.557 20.59 124.737 20.39C124.917 20.17 125.087 19.82 125.247 19.34L127.587 11.75Z" fill="url(#paint6_linear_1657_2766)"/>
<path d="M147.393 8.63C150.113 8.63 152.113 9.18 153.393 10.28C154.693 11.38 155.343 12.82 155.343 14.6C155.343 15.2 155.263 15.87 155.103 16.61C154.723 18.25 154.013 19.69 152.973 20.93C151.933 22.15 150.653 23.1 149.133 23.78C147.633 24.44 146.003 24.77 144.243 24.77C141.463 24.77 139.403 24.22 138.063 23.12C136.743 22 136.083 20.52 136.083 18.68C136.083 18.06 136.163 17.37 136.323 16.61C136.703 15.05 137.423 13.67 138.483 12.47C139.563 11.25 140.873 10.31 142.413 9.65C143.973 8.97 145.633 8.63 147.393 8.63ZM147.303 11.3C146.883 11.3 146.433 11.68 145.953 12.44C145.493 13.18 144.943 14.59 144.303 16.67C143.663 18.75 143.343 20.21 143.343 21.05C143.343 21.49 143.413 21.79 143.553 21.95C143.693 22.09 143.883 22.16 144.123 22.16C144.543 22.2 144.973 21.84 145.413 21.08C145.873 20.32 146.443 18.84 147.123 16.64C147.743 14.7 148.053 13.29 148.053 12.41C148.053 11.99 147.983 11.7 147.843 11.54C147.723 11.38 147.543 11.3 147.303 11.3Z" fill="url(#paint7_linear_1657_2766)"/>
<defs>
<linearGradient id="paint0_linear_1657_2766" x1="78.7602" y1="-13.7947" x2="79.4477" y2="43.0456" gradientUnits="userSpaceOnUse">
<stop stop-color="#BB63FF"/>
<stop offset="1" stop-color="#717CFF"/>
</linearGradient>
<linearGradient id="paint1_linear_1657_2766" x1="78.7602" y1="-13.7947" x2="79.4477" y2="43.0456" gradientUnits="userSpaceOnUse">
<stop stop-color="#BB63FF"/>
<stop offset="1" stop-color="#717CFF"/>
</linearGradient>
<linearGradient id="paint2_linear_1657_2766" x1="78.7602" y1="-13.7947" x2="79.4477" y2="43.0456" gradientUnits="userSpaceOnUse">
<stop stop-color="#BB63FF"/>
<stop offset="1" stop-color="#717CFF"/>
</linearGradient>
<linearGradient id="paint3_linear_1657_2766" x1="78.7602" y1="-13.7947" x2="79.4477" y2="43.0456" gradientUnits="userSpaceOnUse">
<stop stop-color="#BB63FF"/>
<stop offset="1" stop-color="#717CFF"/>
</linearGradient>
<linearGradient id="paint4_linear_1657_2766" x1="78.7602" y1="-13.7947" x2="79.4477" y2="43.0456" gradientUnits="userSpaceOnUse">
<stop stop-color="#BB63FF"/>
<stop offset="1" stop-color="#717CFF"/>
</linearGradient>
<linearGradient id="paint5_linear_1657_2766" x1="78.7602" y1="-13.7947" x2="79.4477" y2="43.0456" gradientUnits="userSpaceOnUse">
<stop stop-color="#BB63FF"/>
<stop offset="1" stop-color="#717CFF"/>
</linearGradient>
<linearGradient id="paint6_linear_1657_2766" x1="78.7602" y1="-13.7947" x2="79.4477" y2="43.0456" gradientUnits="userSpaceOnUse">
<stop stop-color="#BB63FF"/>
<stop offset="1" stop-color="#717CFF"/>
</linearGradient>
<linearGradient id="paint7_linear_1657_2766" x1="78.7602" y1="-13.7947" x2="79.4477" y2="43.0456" gradientUnits="userSpaceOnUse">
<stop stop-color="#BB63FF"/>
<stop offset="1" stop-color="#717CFF"/>
</linearGradient>
</defs>
</svg>
